<mxfile host="app.diagrams.net" agent="Mozilla/5.0 (Windows NT 10.0; Win64; x64) AppleWebKit/537.36 (KHTML, like Gecko) Chrome/138.0.0.0 Safari/537.36" version="28.0.5">
  <diagram id="vZrJ4w_EmmvrWop14gGm" name="StudyRoom Architecture">
    <mxGraphModel dx="579" dy="820" grid="1" gridSize="10" guides="1" tooltips="1" connect="1" arrows="1" fold="1" page="1" pageScale="1" pageWidth="850" pageHeight="1100" math="0" shadow="0">
      <root>
        <mxCell id="0" />
        <mxCell id="1" parent="0" />
        <mxCell id="fRvC3b1rCT_SXS0QzNda-2" value="Client Browser" style="rounded=1;whiteSpace=wrap;html=1;fillColor=#dae8fc;fontSize=16;" parent="1" vertex="1">
          <mxGeometry x="1190" y="110" width="160" height="60" as="geometry" />
        </mxCell>
        <mxCell id="fRvC3b1rCT_SXS0QzNda-3" value="URL Router" style="rounded=1;whiteSpace=wrap;html=1;fillColor=#e6b800;fontSize=16;" parent="1" vertex="1">
          <mxGeometry x="1190" y="210" width="160" height="60" as="geometry" />
        </mxCell>
        <mxCell id="fRvC3b1rCT_SXS0QzNda-4" value="Middleware (Auth, Logging)" style="rounded=1;whiteSpace=wrap;html=1;fillColor=#ffcc80;fontSize=16;" parent="1" vertex="1">
          <mxGeometry x="1190" y="310" width="160" height="60" as="geometry" />
        </mxCell>
        <mxCell id="fRvC3b1rCT_SXS0QzNda-5" value="Django Views" style="rounded=1;whiteSpace=wrap;html=1;fillColor=#d5e8d4;fontSize=16;" parent="1" vertex="1">
          <mxGeometry x="1190" y="420" width="160" height="60" as="geometry" />
        </mxCell>
        <mxCell id="fRvC3b1rCT_SXS0QzNda-6" value="Templates (HTML)" style="rounded=1;whiteSpace=wrap;html=1;fillColor=#fff2cc;fontSize=16;" parent="1" vertex="1">
          <mxGeometry x="910" y="510" width="160" height="60" as="geometry" />
        </mxCell>
        <mxCell id="fRvC3b1rCT_SXS0QzNda-8" value="Cache Layer (Redis)" style="rounded=1;whiteSpace=wrap;html=1;fillColor=#b3e5fc;fontSize=16;" parent="1" vertex="1">
          <mxGeometry x="1187.5" y="530" width="165" height="60" as="geometry" />
        </mxCell>
        <mxCell id="fRvC3b1rCT_SXS0QzNda-9" value="Models" style="rounded=1;whiteSpace=wrap;html=1;fillColor=#f8cecc;fontSize=16;" parent="1" vertex="1">
          <mxGeometry x="1190" y="640" width="160" height="60" as="geometry" />
        </mxCell>
        <mxCell id="fRvC3b1rCT_SXS0QzNda-10" value="SQLite3 Database" style="shape=ellipse;whiteSpace=wrap;html=1;fillColor=#e1d5e7;fontSize=16;" parent="1" vertex="1">
          <mxGeometry x="1190" y="750" width="160" height="60" as="geometry" />
        </mxCell>
        <mxCell id="fRvC3b1rCT_SXS0QzNda-11" value="Admin Interface" style="rounded=1;whiteSpace=wrap;html=1;fillColor=#f5f5f5;fontSize=16;" parent="1" vertex="1">
          <mxGeometry x="1470" y="640" width="160" height="60" as="geometry" />
        </mxCell>
        <mxCell id="fRvC3b1rCT_SXS0QzNda-12" value="External API/Service" style="rounded=1;whiteSpace=wrap;html=1;fillColor=#ce93d8;fontSize=16;" parent="1" vertex="1">
          <mxGeometry x="1480" y="420" width="160" height="60" as="geometry" />
        </mxCell>
        <mxCell id="fRvC3b1rCT_SXS0QzNda-13" style="edgeStyle=orthogonalEdgeStyle;rounded=0;html=1;endArrow=block;strokeColor=#000000;fontSize=16;" parent="1" source="fRvC3b1rCT_SXS0QzNda-2" target="fRvC3b1rCT_SXS0QzNda-3" edge="1">
          <mxGeometry relative="1" as="geometry" />
        </mxCell>
        <mxCell id="fRvC3b1rCT_SXS0QzNda-14" style="edgeStyle=orthogonalEdgeStyle;rounded=0;html=1;endArrow=block;strokeColor=#000000;fontSize=16;" parent="1" source="fRvC3b1rCT_SXS0QzNda-3" target="fRvC3b1rCT_SXS0QzNda-4" edge="1">
          <mxGeometry relative="1" as="geometry" />
        </mxCell>
        <mxCell id="fRvC3b1rCT_SXS0QzNda-15" style="edgeStyle=orthogonalEdgeStyle;rounded=0;html=1;endArrow=block;strokeColor=#000000;fontSize=16;" parent="1" source="fRvC3b1rCT_SXS0QzNda-4" target="fRvC3b1rCT_SXS0QzNda-5" edge="1">
          <mxGeometry relative="1" as="geometry" />
        </mxCell>
        <mxCell id="fRvC3b1rCT_SXS0QzNda-16" style="edgeStyle=orthogonalEdgeStyle;rounded=0;html=1;endArrow=block;strokeColor=#000000;exitX=0;exitY=0.75;exitDx=0;exitDy=0;fontSize=16;" parent="1" source="fRvC3b1rCT_SXS0QzNda-5" target="fRvC3b1rCT_SXS0QzNda-6" edge="1">
          <mxGeometry relative="1" as="geometry" />
        </mxCell>
        <mxCell id="fRvC3b1rCT_SXS0QzNda-17" style="edgeStyle=orthogonalEdgeStyle;rounded=0;html=1;endArrow=block;strokeColor=#000000;exitX=0;exitY=0.25;exitDx=0;exitDy=0;fontSize=16;entryX=0.5;entryY=1;entryDx=0;entryDy=0;" parent="1" source="fRvC3b1rCT_SXS0QzNda-5" target="fRvC3b1rCT_SXS0QzNda-25" edge="1">
          <mxGeometry relative="1" as="geometry">
            <mxPoint x="1010" y="300" as="targetPoint" />
            <Array as="points">
              <mxPoint x="1190" y="440" />
              <mxPoint x="990" y="440" />
            </Array>
          </mxGeometry>
        </mxCell>
        <mxCell id="fRvC3b1rCT_SXS0QzNda-18" style="rounded=0;html=1;endArrow=block;strokeColor=#000000;fontSize=16;entryX=0.5;entryY=0;entryDx=0;entryDy=0;startArrow=block;startFill=1;exitX=0.5;exitY=1;exitDx=0;exitDy=0;" parent="1" source="fRvC3b1rCT_SXS0QzNda-5" target="fRvC3b1rCT_SXS0QzNda-8" edge="1">
          <mxGeometry relative="1" as="geometry">
            <mxPoint x="1325" y="481" as="sourcePoint" />
            <mxPoint x="1360" y="540" as="targetPoint" />
          </mxGeometry>
        </mxCell>
        <mxCell id="fRvC3b1rCT_SXS0QzNda-19" style="rounded=0;html=1;endArrow=block;strokeColor=#000000;fontSize=16;entryX=0.5;entryY=0;entryDx=0;entryDy=0;exitX=0.5;exitY=1;exitDx=0;exitDy=0;startArrow=block;startFill=1;edgeStyle=orthogonalEdgeStyle;" parent="1" source="fRvC3b1rCT_SXS0QzNda-8" target="fRvC3b1rCT_SXS0QzNda-9" edge="1">
          <mxGeometry relative="1" as="geometry" />
        </mxCell>
        <mxCell id="fRvC3b1rCT_SXS0QzNda-20" style="edgeStyle=orthogonalEdgeStyle;rounded=0;html=1;endArrow=block;strokeColor=#000000;fontSize=16;startArrow=block;startFill=1;" parent="1" source="fRvC3b1rCT_SXS0QzNda-9" target="fRvC3b1rCT_SXS0QzNda-10" edge="1">
          <mxGeometry relative="1" as="geometry" />
        </mxCell>
        <mxCell id="fRvC3b1rCT_SXS0QzNda-21" style="edgeStyle=orthogonalEdgeStyle;rounded=0;html=1;endArrow=block;strokeColor=#000000;fontSize=16;entryX=1;entryY=0.5;entryDx=0;entryDy=0;" parent="1" source="fRvC3b1rCT_SXS0QzNda-11" target="fRvC3b1rCT_SXS0QzNda-9" edge="1">
          <mxGeometry relative="1" as="geometry" />
        </mxCell>
        <mxCell id="fRvC3b1rCT_SXS0QzNda-22" style="edgeStyle=orthogonalEdgeStyle;rounded=0;html=1;endArrow=block;strokeColor=#000000;exitX=1;exitY=0.5;exitDx=0;exitDy=0;fontSize=16;" parent="1" source="fRvC3b1rCT_SXS0QzNda-5" target="fRvC3b1rCT_SXS0QzNda-12" edge="1">
          <mxGeometry relative="1" as="geometry" />
        </mxCell>
        <mxCell id="fRvC3b1rCT_SXS0QzNda-25" value="Static Files (CSS/JS)" style="rounded=1;whiteSpace=wrap;html=1;fillColor=#fff2cc;fontSize=16;" parent="1" vertex="1">
          <mxGeometry x="910" y="330" width="160" height="60" as="geometry" />
        </mxCell>
        <mxCell id="fRvC3b1rCT_SXS0QzNda-26" value="&lt;span&gt;&lt;b&gt;&lt;font&gt;JKR Studyroom System Architecture&lt;/font&gt;&lt;/b&gt;&lt;/span&gt;" style="text;html=1;align=center;verticalAlign=middle;whiteSpace=wrap;rounded=0;fontSize=27;" parent="1" vertex="1">
          <mxGeometry x="945" y="860" width="650" height="30" as="geometry" />
        </mxCell>
      </root>
    </mxGraphModel>
  </diagram>
</mxfile>
